<?xml version="1.0" encoding="UTF-8" standalone="no"?>
<!-- Created with Inkscape (http://www.inkscape.org/) -->

<svg
   xmlns:dc="http://purl.org/dc/elements/1.1/"
   xmlns:cc="http://creativecommons.org/ns#"
   xmlns:rdf="http://www.w3.org/1999/02/22-rdf-syntax-ns#"
   xmlns:svg="http://www.w3.org/2000/svg"
   xmlns="http://www.w3.org/2000/svg"
   xmlns:xlink="http://www.w3.org/1999/xlink"
   xmlns:sodipodi="http://sodipodi.sourceforge.net/DTD/sodipodi-0.dtd"
   xmlns:inkscape="http://www.inkscape.org/namespaces/inkscape"
   width="210mm"
   height="297mm"
   id="svg2"
   version="1.1"
   inkscape:version="0.47 r22583"
   sodipodi:docname="Logo.svg"
   inkscape:export-filename="/home/ivan/Logo.jpg.png"
   inkscape:export-xdpi="90"
   inkscape:export-ydpi="90">
  <defs
     id="defs4">
    <inkscape:perspective
       sodipodi:type="inkscape:persp3d"
       inkscape:vp_x="0 : 526.18109 : 1"
       inkscape:vp_y="0 : 1000 : 0"
       inkscape:vp_z="744.09448 : 526.18109 : 1"
       inkscape:persp3d-origin="372.04724 : 350.78739 : 1"
       id="perspective10" />
    <inkscape:perspective
       id="perspective2919"
       inkscape:persp3d-origin="0.5 : 0.33333333 : 1"
       inkscape:vp_z="1 : 0.5 : 1"
       inkscape:vp_y="0 : 1000 : 0"
       inkscape:vp_x="0 : 0.5 : 1"
       sodipodi:type="inkscape:persp3d" />
    <inkscape:perspective
       id="perspective2966"
       inkscape:persp3d-origin="0.5 : 0.33333333 : 1"
       inkscape:vp_z="1 : 0.5 : 1"
       inkscape:vp_y="0 : 1000 : 0"
       inkscape:vp_x="0 : 0.5 : 1"
       sodipodi:type="inkscape:persp3d" />
    <inkscape:perspective
       id="perspective2966-7"
       inkscape:persp3d-origin="0.5 : 0.33333333 : 1"
       inkscape:vp_z="1 : 0.5 : 1"
       inkscape:vp_y="0 : 1000 : 0"
       inkscape:vp_x="0 : 0.5 : 1"
       sodipodi:type="inkscape:persp3d" />
    <inkscape:perspective
       id="perspective3030"
       inkscape:persp3d-origin="0.5 : 0.33333333 : 1"
       inkscape:vp_z="1 : 0.5 : 1"
       inkscape:vp_y="0 : 1000 : 0"
       inkscape:vp_x="0 : 0.5 : 1"
       sodipodi:type="inkscape:persp3d" />
    <inkscape:perspective
       id="perspective3074"
       inkscape:persp3d-origin="0.5 : 0.33333333 : 1"
       inkscape:vp_z="1 : 0.5 : 1"
       inkscape:vp_y="0 : 1000 : 0"
       inkscape:vp_x="0 : 0.5 : 1"
       sodipodi:type="inkscape:persp3d" />
    <inkscape:perspective
       id="perspective3102"
       inkscape:persp3d-origin="0.5 : 0.33333333 : 1"
       inkscape:vp_z="1 : 0.5 : 1"
       inkscape:vp_y="0 : 1000 : 0"
       inkscape:vp_x="0 : 0.5 : 1"
       sodipodi:type="inkscape:persp3d" />
    <inkscape:perspective
       id="perspective3167"
       inkscape:persp3d-origin="0.5 : 0.33333333 : 1"
       inkscape:vp_z="1 : 0.5 : 1"
       inkscape:vp_y="0 : 1000 : 0"
       inkscape:vp_x="0 : 0.5 : 1"
       sodipodi:type="inkscape:persp3d" />
    <inkscape:perspective
       id="perspective3195"
       inkscape:persp3d-origin="0.5 : 0.33333333 : 1"
       inkscape:vp_z="1 : 0.5 : 1"
       inkscape:vp_y="0 : 1000 : 0"
       inkscape:vp_x="0 : 0.5 : 1"
       sodipodi:type="inkscape:persp3d" />
  </defs>
  <sodipodi:namedview
     id="base"
     pagecolor="#ffffff"
     bordercolor="#666666"
     borderopacity="1.0"
     inkscape:pageopacity="0.0"
     inkscape:pageshadow="2"
     inkscape:zoom="0.70772774"
     inkscape:cx="359.78573"
     inkscape:cy="612.84446"
     inkscape:document-units="px"
     inkscape:current-layer="layer1"
     showgrid="false"
     inkscape:window-width="1055"
     inkscape:window-height="900"
     inkscape:window-x="122"
     inkscape:window-y="7"
     inkscape:window-maximized="0"
     showguides="true"
     inkscape:guide-bbox="true">
    <sodipodi:guide
       orientation="0,1"
       position="-136.36364,339.39394"
       id="guide3064" />
  </sodipodi:namedview>
  <metadata
     id="metadata7">
    <rdf:RDF>
      <cc:Work
         rdf:about="">
        <dc:format>image/svg+xml</dc:format>
        <dc:type
           rdf:resource="http://purl.org/dc/dcmitype/StillImage" />
        <dc:title></dc:title>
      </cc:Work>
    </rdf:RDF>
  </metadata>
  <g
     inkscape:label="Capa 1"
     inkscape:groupmode="layer"
     id="layer1">
    <rect
       style="fill:#ffffff;stroke:none"
       id="rect3237"
       width="850.60956"
       height="1167.1155"
       x="-48.041073"
       y="-51.169525" />
    <path
       style="fill:#501616;stroke:none"
       d="m 457.83608,235.75615 c 22.06269,-37.93075 21.83402,-85.37337 20.30693,-145.909032 3.49815,97.319432 9.66532,183.962782 27.0759,225.632512 -15.74513,-26.57449 -26.02697,-53.14898 -47.38283,-79.72348 z"
       id="path2816"
       sodipodi:nodetypes="cccc" />
    <path
       style="fill:#501616;stroke:none"
       d="m 540.59286,283.89109 c 23.56606,-16.04465 47.13213,-47.33207 70.69819,-36.10121 -15.42189,-37.64109 -22.38104,-89.38673 -32.34065,-136.13161 -2.9763,61.45017 -2.4762,124.33178 -38.35754,172.23282 z"
       id="path2818"
       sodipodi:nodetypes="cccc" />
    <path
       style="fill:#501616;stroke:none"
       d="m 646.39517,306.45434 c 20.24992,-52.21743 12.39995,-139.55973 9.7774,-220.367758 12.78585,83.484978 25.57169,187.976328 38.35754,250.452098 -0.69258,-17.70432 -29.15652,-21.52294 -48.13494,-30.08434 z"
       id="path2820"
       sodipodi:nodetypes="cccc" />
    <path
       style="fill:#008000;stroke:none"
       d="m 477.39842,72.548883 -2.04762,4.467528 3.00938,9.369387 2.82323,-3.800494 -3.78499,-10.036421 z m 3.78499,10.036421 7.9888,21.158686 2.38888,-9.152222 -7.39933,-16.024132 -2.97835,4.017668 z m 10.37768,12.006464 8.29905,17.994192 -6.67026,-24.245619 -1.62879,6.251427 z m 8.29905,17.994192 7.6165,27.65831 -3.76947,2.0166 2.96283,7.83368 17.38922,33.11863 9.74168,2.90078 -33.94076,-73.528 z m 24.19908,70.62722 -5.50684,-1.6443 5.70851,15.12442 8.03533,2.20274 -8.237,-15.68286 z m 0.20167,13.48012 -11.33945,-3.10244 7.08909,21.96532 13.03027,4.40548 -8.77991,-23.26836 z m -4.25036,18.86288 -78.24372,-26.44836 -8.7489,30.85384 93.25956,15.04687 -6.26694,-19.45235 z m -78.24372,-26.44836 3.95563,-13.9455 -6.68577,-1.83045 4.48303,-14.10061 -5.22763,-1.56674 -12.03749,26.20016 15.51223,5.24314 z m -3.47474,-31.4433 18.5061,-40.28527 1.08585,-3.41269 -30.12476,40.5645 10.53281,3.13346 z m 19.59195,-43.69796 1.27201,-1.72187 11.49457,-25.005716 1.05483,-3.738452 -2.59054,-4.932886 -11.23087,35.398924 z m 13.82141,-30.466038 0.35678,0.667025 3.28859,-7.151136 -0.96176,-2.962835 -2.68361,9.446946 z m 0.35678,0.667025 -1.41161,3.071427 -4.37446,15.403656 9.07466,-12.208142 -3.28859,-6.266941 z m 3.28859,6.266941 5.16558,9.850272 1.22547,-3.412692 -3.38167,-10.48627 -3.00938,4.04869 z m 6.39105,6.43758 4.79328,14.876242 0.37229,0.69804 0.96176,-3.70742 -5.21212,-14.379842 -0.91521,2.51298 z m 6.12733,11.866862 6.49962,17.91663 8.43866,16.0862 0.89971,-0.48089 -14.53496,-38.51688 -1.30303,4.99494 z m 14.93828,34.00283 -2.18723,1.16341 6.85641,18.8939 -4.20381,0.82215 4.76225,14.81418 10.5173,3.13348 -11.88238,-31.47433 -3.86254,-7.35279 z m 5.22762,35.69364 -31.81559,-9.47797 -22.15147,4.37444 3.58332,-9.8968 -7.94226,-2.35786 -3.98664,14.08511 67.199,18.42854 -4.88636,-15.15546 z m -58.326,-17.35819 16.56706,-58.43458 -7.12011,9.60206 -2.35786,5.13456 -13.27847,41.85201 6.18938,1.84595 z m 7.94226,2.35786 18.56815,5.52236 27.05334,-5.33621 -5.81709,-18.02522 -22.3221,11.94442 11.71174,-44.84586 -0.31025,-0.94625 -6.01875,-11.46355 -22.86504,63.15031 z m 29.19404,-50.74051 10.61036,32.90144 3.16449,-1.69083 -6.25143,-17.24961 -7.46138,-14.20921 -0.062,0.24821 z"
       id="path2822" />
    <path
       style="fill:#008000;stroke:none"
       d="m 578.95697,61.264912 -0.54293,31.381246 2.4044,8.609292 2.63708,-6.902942 2.40439,24.974702 2.37337,8.48519 24.94368,58.93098 9.40042,-1.38058 -43.62041,-124.097888 z m 34.21999,125.478468 -6.85641,1.0083 4.96392,13.40257 -2.65259,-0.18615 2.10966,7.55446 11.07574,-1.34957 -8.64032,-20.42961 z m -2.43542,21.77918 -8.12842,1.00829 9.43144,3.66089 -1.30302,-4.66918 z m -8.12842,1.00829 -8.39211,-3.27308 0.41883,4.25036 7.97328,-0.97728 z m -7.97328,0.97728 -3.95562,0.48087 4.0642,0.69805 -0.10858,-1.17892 z m -3.95562,0.48087 -6.12733,-1.05483 -4.57611,2.35786 10.70344,-1.30303 z m -10.70344,1.30303 -22.26006,2.73015 -1.33405,9.44695 23.59411,-12.1771 z m -22.26006,2.73015 1.34957,-9.44695 -8.93505,-1.53571 -2.0166,12.16159 9.60208,-1.17893 z m -7.58548,-10.98266 2.32683,-14.05408 -4.80879,-1.87698 -5.55338,14.55048 8.03534,1.38058 z m -2.48196,-15.93106 9.04363,-23.7027 13.23194,-79.825961 4.74675,11.215349 1.27199,-8.950564 2.4044,9.493484 0.062,-3.69191 -6.23593,-22.353124 -31.5829,115.069766 7.05807,2.74566 z m 30.69871,-91.770392 -0.13961,7.833692 0.79113,1.84595 1.08586,-2.83874 -1.73738,-6.840902 z m 1.73738,6.840902 3.39718,13.4491 2.73015,6.43758 -0.35679,-3.73844 -5.04147,-18.07176 -0.72907,1.92352 z m 6.12733,19.88668 0.66702,6.965 4.20382,16.6136 9.66412,26.06056 -12.51838,-44.89241 -2.01658,-4.74675 z m 14.53496,49.63916 4.25035,15.24853 1.31854,-0.20166 -5.56889,-15.04687 z m 4.25035,15.24853 -3.31962,0.48088 2.83875,11.21534 -1.76841,0.91521 5.87915,0.40333 -3.62987,-13.01476 z m -2.24928,12.61143 -9.1367,-0.636 0.48089,5.08803 8.65581,-4.45203 z m -8.65581,4.45203 -1.30304,0.68253 1.42713,0.55844 -0.12409,-1.24097 z m -1.30304,0.68253 -18.14931,-7.07358 -6.9805,-0.48088 0.13961,-2.18722 -6.98051,-2.71465 -1.75288,12.33223 25.4866,4.35894 8.23699,-4.23484 z m -31.97071,-12.45633 8.96608,-63.11928 -13.09234,34.28204 -4.23484,25.57968 8.3611,3.25756 z m 8.96608,-63.11928 2.41989,-6.31347 1.13241,-18.66123 -3.5523,24.9747 z m 3.5523,-24.9747 0.66702,-4.65367 -0.32576,-0.868682 -0.34126,5.522352 z m 0.66702,-4.65367 3.49026,9.44695 0.6515,-1.67533 0.0621,-4.09521 -3.53678,-8.376612 -0.66703,4.700202 z m 4.14176,7.77162 -0.062,3.25759 9.47798,25.59517 -0.68255,-7.08908 -3.39717,-13.40258 -4.48303,-10.61036 -0.85319,2.24926 z m 9.41593,28.85276 5.0725,52.64854 9.04363,-1.33405 -10.59485,-41.78997 -3.52128,-9.52452 z m 5.0725,52.64854 -15.94658,2.35786 1.39611,-80.60157 -0.58946,-1.58226 -5.28969,13.86795 -4.40546,72.1474 6.84089,2.6681 18.97146,1.30302 -0.97727,-10.1605 z"
       id="path2824" />
    <path
       style="fill:#008000;stroke:none"
       d="m 652.41956,60.510921 -2.71464,28.464947 6.63923,16.954872 2.71465,-20.60024 -6.63924,-24.819579 z m 6.63924,24.819579 6.70128,25.0988 2.26479,-15.620832 -6.5927,-27.518701 -2.37337,18.040733 z m 8.96607,9.477968 13.44911,56.185322 22.07391,56.9299 -7.22871,0.29473 10.16052,25.95198 8.36109,2.34234 -45.12509,-153.431516 -1.69083,11.727244 z m 38.45483,139.361932 -5.46031,-1.52021 2.96283,12.36325 6.34451,-0.97727 -3.84703,-9.86577 z m -2.49748,10.84304 -2.14068,0.32576 2.46644,9.21428 -17.01692,-6.99602 -2.52849,0.3878 23.29937,14.13164 -4.07972,-17.06346 z m -19.21965,2.93182 -7.27524,-4.42099 -31.17959,-12.81311 0.0931,23.09772 38.36176,-5.86362 z m -38.45483,-17.2341 -0.0311,-6.12733 -5.15007,-3.11795 4.96391,-37.74127 -0.23268,-54.23078 -9.24528,97.23069 9.69514,3.98664 z m -0.44986,-101.21733 3.84704,-40.517962 -4.06421,-10.408704 0.21717,50.926666 z m 0.23269,54.23078 0.18614,40.85922 31.21062,18.94044 9.80373,4.03319 14.55048,-2.21826 -3.59884,-13.46462 -48.08793,-13.41808 13.54219,-93.70941 -7.35281,-18.81635 -10.25358,77.79387 z m 17.60639,-58.97752 5.41377,13.85242 0.46536,-13.91447 -3.81601,-14.25574 -2.06312,14.31779 z m 5.87913,-0.062 12.79759,47.83973 10.98266,28.09266 -11.88236,-49.62364 -11.75828,-30.31091 -0.13961,4.00216 z m 23.78025,75.93239 1.83045,7.64753 1.13239,-0.0466 -2.96284,-7.601 z m 1.83045,7.64753 -3.22655,0.1241 6.28246,23.48553 2.77669,0.7756 -5.8326,-24.38523 z m -3.22655,0.1241 -9.58656,-35.86429 -13.26295,-33.92525 -2.40441,70.82886 25.25392,-1.03932 z"
       id="path2826" />
    <text
       xml:space="preserve"
       style="font-size:63.52986908px;font-style:normal;font-variant:normal;font-weight:bold;font-stretch:normal;text-align:start;line-height:125%;writing-mode:lr-tb;text-anchor:start;fill:#0000ff;fill-opacity:1;stroke:none;font-family:Bitstream Vera Serif;-inkscape-font-specification:Bitstream Vera Serif Bold"
       x="22.029806"
       y="309.63608"
       id="text2903"
       sodipodi:linespacing="125%"><tspan
         sodipodi:role="line"
         id="tspan2905"
         x="22.029806"
         y="309.63608">InterSeguro</tspan></text>
    <text
       xml:space="preserve"
       style="font-size:21.67954445px;font-style:normal;font-variant:normal;font-weight:bold;font-stretch:normal;text-align:start;line-height:125%;writing-mode:lr-tb;text-anchor:start;fill:#0000ff;fill-opacity:1;stroke:none;font-family:Bitstream Vera Serif;-inkscape-font-specification:Bitstream Vera Serif Bold"
       x="22.68495"
       y="352.62787"
       id="text2907"
       sodipodi:linespacing="125%"><tspan
         sodipodi:role="line"
         id="tspan2909"
         x="22.68495"
         y="352.62787">La primera aseguradora especializada en intermediarios</tspan></text>
    <g
       id="g2948"
       transform="translate(52.194079,-103.64838)">
      <path
         sodipodi:nodetypes="cccc"
         id="path2816-7"
         d="m 227.15572,854.99342 c 28.49484,-48.98908 28.19951,-110.26312 26.22721,-188.44735 4.518,125.69194 12.48315,237.59528 34.96961,291.41342 -20.33546,-34.32202 -33.61488,-68.64405 -61.19682,-102.96607 z"
         style="fill:#501616;stroke:none" />
      <path
         sodipodi:nodetypes="cccc"
         id="path2818-5"
         d="m 294.64548,917.16161 c 30.43651,-20.7223 60.87302,-61.13126 91.30953,-46.62615 -19.91798,-48.61498 -28.90601,-115.44654 -41.76925,-175.81942 -3.844,79.36535 -3.1981,160.57947 -49.54028,222.44557 z"
         style="fill:#501616;stroke:none" />
      <path
         sodipodi:nodetypes="cccc"
         id="path2820-9"
         d="m 397.96006,946.30295 c 26.15358,-67.4409 16.01503,-180.24697 12.62791,-284.61377 16.51343,107.82419 33.02685,242.77895 49.54028,323.4689 -0.89449,-22.86583 -37.65681,-27.79774 -62.16819,-38.85513 z"
         style="fill:#501616;stroke:none" />
      <path
         id="path2822-2"
         d="m 252.42126,644.2047 -2.64458,5.76999 3.88673,12.10094 3.64631,-4.90849 -4.88846,-12.96244 z m 4.88846,12.96244 10.31786,27.32729 3.08534,-11.82046 -9.55654,-20.69581 -3.84666,5.18898 z m 13.4032,15.50683 10.71855,23.24022 -8.61491,-31.31419 -2.10364,8.07397 z m 10.71855,23.24022 9.83702,35.72182 -4.86842,2.60451 3.82662,10.11751 22.45887,42.77403 12.58177,3.74648 -43.83586,-94.96435 z m 31.25409,91.21787 -7.11231,-2.12368 7.37276,19.53381 10.37796,2.84492 -10.63841,-20.25505 z m 0.26045,17.41013 -14.64535,-4.00694 9.15585,28.3691 16.82912,5.68985 -11.33962,-30.05201 z m -5.4895,24.36216 -101.05489,-34.15912 -11.29956,39.84897 120.44845,19.43363 -8.094,-25.12348 z m -101.05489,-34.15912 5.10884,-18.01117 -8.63494,-2.36409 5.79002,-18.21152 -6.75169,-2.0235 -15.5469,33.83856 20.03467,6.77172 z m -4.48777,-40.61028 23.90137,-52.03004 1.40242,-4.40763 -38.90733,52.39067 13.60354,4.047 z m 25.30379,-56.43767 1.64285,-2.22385 14.84569,-32.29589 1.36236,-4.82836 -3.34579,-6.37102 -14.50511,45.71912 z m 17.8509,-39.3481 0.46079,0.86149 4.24735,-9.23598 -1.24215,-3.82662 -3.46599,12.20111 z m 0.46079,0.86149 -1.82315,3.96687 -5.64978,19.89443 11.72028,-15.76729 -4.24735,-8.09401 z m 4.24735,8.09401 6.67155,12.72202 1.58274,-4.40763 -4.36756,-13.54344 -3.88673,5.22905 z m 8.25429,8.31439 6.19071,19.21325 0.48083,0.90156 1.24215,-4.78828 -6.73165,-18.57215 -1.18204,3.24562 z m 7.91369,15.32653 8.39453,23.14004 10.89886,20.77596 1.16202,-0.62108 -18.77249,-49.74609 -1.68292,6.45117 z m 19.29339,43.916 -2.82488,1.5026 8.85532,24.40223 -5.4294,1.06184 6.15065,19.13311 13.58351,4.047 -15.34656,-40.65035 -4.98864,-9.49643 z m 6.75169,46.09978 -41.09111,-12.24119 -28.60952,5.64978 4.62801,-12.78212 -10.25775,-3.04527 -5.14891,18.19148 86.7902,23.80119 -6.31092,-19.57387 z m -75.33037,-22.4188 21.39703,-75.47061 -9.19591,12.40146 -3.04527,6.63148 -17.14968,54.05354 7.99383,2.38413 z m 10.25775,3.04527 23.98151,7.13234 34.94046,-6.89192 -7.513,-23.28029 -28.82989,15.42669 15.12618,-57.92023 -0.4007,-1.22212 -7.77345,-14.80562 -29.53111,81.56115 z m 37.70526,-65.53341 13.70371,42.49354 4.08708,-2.18378 -8.07398,-22.27856 -9.63668,-18.35176 -0.0801,0.32056 z"
         style="fill:#008000;stroke:none" />
      <path
         id="path2824-2"
         d="m 344.19426,629.631 -0.70122,40.53014 3.10538,11.11924 3.40589,-8.91543 3.10538,32.25583 3.0653,10.95896 32.21575,76.11172 12.14102,-1.78308 -56.3375,-160.27738 z m 44.19648,162.06046 -8.85532,1.30226 6.41109,17.30995 -3.42593,-0.24041 2.72472,9.75688 14.30476,-1.74302 -11.15932,-26.38566 z m -3.14544,28.12868 -10.49817,1.30226 12.18108,4.72818 -1.68291,-6.03044 z m -10.49817,1.30226 -10.83876,-4.22732 0.54094,5.4895 10.29782,-1.26218 z m -10.29782,1.26218 -5.10884,0.62107 5.24908,0.90156 -0.14024,-1.52263 z m -5.10884,0.62107 -7.9137,-1.36235 -5.91022,3.04527 13.82392,-1.68292 z m -13.82392,1.68292 -28.74976,3.5261 -1.72298,12.20111 30.47274,-15.72721 z m -28.74976,3.5261 1.74302,-12.20112 -11.53997,-1.98343 -2.60451,15.70718 12.40146,-1.52263 z m -9.79695,-14.18455 3.0052,-18.15141 -6.21075,-2.4242 -7.17241,18.79253 10.37796,1.78308 z m -3.20555,-20.57561 11.68021,-30.61298 17.08958,-103.09842 6.13061,14.48507 1.64284,-11.56001 3.10537,12.26122 0.0801,-4.76825 -8.05394,-28.86996 -40.79059,148.6172 9.11578,3.54613 z m 39.64861,-118.52512 -0.18031,10.11751 1.02177,2.38413 1.40243,-3.66635 -2.24389,-8.83529 z m 2.24389,8.83529 4.38759,17.37006 3.5261,8.31439 -0.46079,-4.82835 -6.51127,-23.3404 -0.94163,2.4843 z m 7.91369,25.68445 0.86149,8.99557 5.4294,21.45713 12.4816,33.65825 -16.16798,-57.98034 -2.60451,-6.13061 z m 18.77249,64.11095 5.4895,19.69409 1.70295,-0.26045 -7.19245,-19.43364 z m 5.4895,19.69409 -4.28742,0.62107 3.66635,14.48507 -2.28396,1.18204 7.59314,0.52091 -4.68811,-16.80909 z m -2.90503,16.28818 -11.80042,-0.82142 0.62108,6.57138 11.17934,-5.74996 z m -11.17934,5.74996 -1.68292,0.88152 1.84319,0.72125 -0.16027,-1.60277 z m -1.68292,0.88152 -23.44056,-9.13581 -9.0156,-0.62107 0.18031,-2.82489 -9.01561,-3.50607 -2.26391,15.92756 32.91696,5.62975 10.63841,-5.46947 z m -41.29146,-16.08784 11.58005,-81.52108 -16.90927,44.27662 -5.46946,33.03718 10.79868,4.20728 z m 11.58005,-81.52108 3.1254,-8.15411 1.46254,-24.10172 -4.58794,32.25583 z m 4.58794,-32.25583 0.86149,-6.0104 -0.42073,-1.12194 -0.44076,7.13234 z m 0.86149,-6.0104 4.5078,12.20112 0.84145,-2.16375 0.0801,-5.28915 -4.5679,-10.81872 -0.86149,6.0705 z m 5.34925,10.03737 -0.0801,4.20729 12.24118,33.0572 -0.88153,-9.15584 -4.38759,-17.30996 -5.79002,-13.70371 -1.10191,2.90502 z m 12.16105,37.26449 6.55134,67.99768 11.68021,-1.72298 -13.68368,-53.97341 -4.54787,-12.30129 z m 6.55134,67.99768 -20.59565,3.04527 1.80313,-104.10015 -0.76132,-2.04354 -6.83183,17.911 -5.68984,93.18126 8.83529,3.44596 24.5024,1.68291 -1.26218,-13.12271 z"
         style="fill:#008000;stroke:none" />
      <path
         id="path2826-8"
         d="m 405.7408,628.65719 -3.50607,36.76362 8.57484,21.8979 3.50607,-26.60604 -8.57484,-32.05548 z m 8.57484,32.05548 8.65498,32.4161 2.92506,-20.17492 -8.51474,-35.54151 -3.0653,23.30033 z m 11.58004,12.24118 17.37006,72.56558 28.50934,73.52725 -9.33616,0.38066 13.12271,33.51801 10.79869,3.02523 -58.28086,-198.16294 -2.18378,15.14621 z m 49.66595,179.9915 -7.0522,-1.9634 3.82662,15.96763 8.19418,-1.26218 -4.9686,-12.74205 z m -3.22558,14.00423 -2.76479,0.42073 3.18552,11.9006 -21.97804,-9.03564 -3.26565,0.50087 30.09208,18.25158 -5.26912,-22.03814 z m -24.82296,3.78656 -9.39626,-5.70989 -40.26969,-16.54864 0.12021,29.83163 49.54574,-7.5731 z m -49.66595,-22.25853 -0.0401,-7.91369 -6.65151,-4.02697 6.41109,-48.74436 -0.30052,-70.04121 -11.94066,125.57732 12.52167,5.14891 z m -0.58101,-130.72623 4.9686,-52.33057 -5.24908,-13.44326 0.28048,65.77383 z m 0.30052,70.04121 0.24042,52.77133 40.30976,24.46233 12.66191,5.20902 18.79252,-2.86496 -4.64804,-17.39009 -62.10748,-17.33 17.49027,-121.02945 -9.49644,-24.30206 -13.24292,100.47388 z m 22.73936,-76.17182 6.9921,17.89096 0.60104,-17.9711 -4.92853,-18.41186 -2.66461,18.492 z m 7.59314,-0.0801 16.5286,61.78693 14.18455,36.28279 -15.34656,-64.09092 -15.18628,-39.14775 -0.18031,5.16895 z m 30.71315,98.06972 2.36409,9.87709 1.46253,-0.0601 -3.82662,-9.81699 z m 2.36409,9.87709 -4.16721,0.16028 8.11404,30.3325 3.58621,1.00173 -7.53304,-31.49451 z m -4.16721,0.16028 -12.38143,-46.32016 -17.12964,-43.81583 -3.10538,91.47831 32.61645,-1.34232 z"
         style="fill:#008000;stroke:none" />
    </g>
    <path
       style="fill:none;stroke:none;stroke-width:1.27220595000000003"
       d="m 156.96016,749.58903 c -27.46215,179.42066 95.69635,347.14127 275.117,374.60347 179.42066,27.4621 347.1474,-95.7356 374.60951,-275.15627 C 834.14888,669.61562 710.94501,501.92818 531.52436,474.46604 352.10371,447.00388 184.42231,570.16838 156.96016,749.58903 z"
       id="path2956" />
    <path
       transform="matrix(-0.86922713,-0.36956605,0.36956605,-0.86922713,444.28083,1565.2319)"
       sodipodi:type="arc"
       style="fill:none;stroke:none"
       id="path2956-3"
       sodipodi:cx="411.36365"
       sodipodi:cy="816.7561"
       sodipodi:rx="258.33334"
       sodipodi:ry="258.33334"
       d="m 669.69699,816.7561 a 258.33334,258.33334 0 1 1 -516.66669,0 258.33334,258.33334 0 1 1 516.66669,0 z" />
    <text
       xml:space="preserve"
       style="font-size:82.05136871px;font-style:normal;font-variant:normal;font-weight:bold;font-stretch:normal;text-align:start;line-height:125%;writing-mode:lr-tb;text-anchor:start;fill:#0000ff;fill-opacity:1;stroke:none;font-family:Bitstream Vera Serif;-inkscape-font-specification:Bitstream Vera Serif Bold"
       id="text2903-4"
       sodipodi:linespacing="125%"><textPath
         xlink:href="#path2956-3"
         id="textPath3184"><tspan
   id="tspan2905-5">InterSeguro</tspan></textPath></text>
    <text
       xml:space="preserve"
       style="font-size:36px;font-style:normal;font-variant:normal;font-weight:bold;font-stretch:normal;text-align:start;line-height:125%;writing-mode:lr-tb;text-anchor:start;fill:#0000ff;fill-opacity:1;stroke:none;font-family:Bitstream Vera Serif;-inkscape-font-specification:Bitstream Vera Serif Bold"
       id="text2907-0"
       sodipodi:linespacing="125%"
       transform="translate(-93.256201,-96.082146)"><textPath
         xlink:href="#path2956"
         id="textPath3212"><tspan
   id="tspan2909-3"
   style="font-size:36px;font-style:normal;font-variant:normal;font-weight:bold;font-stretch:normal;text-align:start;line-height:125%;writing-mode:lr-tb;text-anchor:start;font-family:Bitstream Vera Serif;-inkscape-font-specification:Bitstream Vera Serif Bold">La primera aseguradora especializada en intermediarios</tspan></textPath></text>
  </g>
</svg>
